<svg width="48" height="48" viewBox="0 0 48 48" fill="none" xmlns="http://www.w3.org/2000/svg">
<path d="M25.065 18.6921L25.065 18.6921L25.0685 18.6956L33.6416 27.1688C33.7747 27.3118 33.8785 27.4794 33.9473 27.6622L34.4153 27.4862L33.9473 27.6622C34.0171 27.8477 34.0494 28.0452 34.0424 28.2432C34.0355 28.4413 33.9893 28.636 33.9067 28.8161L34.3611 29.0247L33.9067 28.8161C33.824 28.9962 33.7065 29.1582 33.5609 29.2926L33.5543 29.2987L33.5479 29.305C33.4078 29.444 33.2415 29.554 33.0588 29.6287C32.876 29.7033 32.6803 29.7411 32.4829 29.74L32.4821 29.74C32.089 29.7383 31.7123 29.5824 31.433 29.3058C31.4327 29.3056 31.4324 29.3053 31.4321 29.305L24.3536 22.2264L24 21.8729L23.6465 22.2264L16.5675 29.3054C16.5674 29.3056 16.5672 29.3057 16.567 29.3059C16.286 29.5849 15.9061 29.7416 15.51 29.7416C15.1137 29.7416 14.7336 29.5848 14.4525 29.3054L14.4521 29.305C14.3115 29.1655 14.1999 28.9996 14.1238 28.8169C14.0476 28.6341 14.0084 28.438 14.0084 28.24C14.0084 28.042 14.0476 27.8459 14.1238 27.6631C14.1999 27.4803 14.3115 27.3144 14.4521 27.175L14.4536 27.1735L22.9336 18.6936L22.935 18.6921C23.0745 18.5515 23.2404 18.4399 23.4232 18.3638C23.6059 18.2876 23.802 18.2484 24 18.2484C24.198 18.2484 24.3941 18.2876 24.5769 18.3638L24.7692 17.9022L24.5769 18.3638C24.7597 18.4399 24.9256 18.5515 25.065 18.6921Z" />
</svg>
