<svg width="48" height="48" viewBox="0 0 48 48" fill="none" xmlns="http://www.w3.org/2000/svg">
<path d="M33.6475 18.6946L33.6479 18.695C33.7885 18.8344 33.9001 19.0003 33.9763 19.1831C34.0524 19.3659 34.0916 19.562 34.0916 19.76C34.0916 19.958 34.0524 20.1541 33.9763 20.3369C33.9001 20.5196 33.7885 20.6855 33.648 20.825C33.6479 20.825 33.6479 20.825 33.6479 20.825L25.0685 29.3044L25.0685 29.3044L25.065 29.3079C24.9256 29.4485 24.7597 29.5601 24.5769 29.6362C24.3941 29.7124 24.198 29.7516 24 29.7516C23.802 29.7516 23.6059 29.7124 23.4232 29.6362C23.2404 29.5601 23.0745 29.4485 22.935 29.3079L22.9336 29.3064L14.4536 20.8264L14.4536 20.8264L14.4521 20.825C14.3115 20.6856 14.1999 20.5197 14.1238 20.3369C14.0476 20.1541 14.0084 19.958 14.0084 19.76C14.0084 19.562 14.0476 19.3659 14.1238 19.1831C14.1999 19.0003 14.3115 18.8344 14.4521 18.695L14.4525 18.6946C14.7336 18.4152 15.1137 18.2584 15.51 18.2584C15.9061 18.2584 16.286 18.4151 16.567 18.6941C16.5672 18.6943 16.5674 18.6944 16.5675 18.6946L23.6465 25.7736L23.9975 26.1246L24.3511 25.776L31.5311 18.696L31.5325 18.6946C31.8136 18.4152 32.1937 18.2584 32.59 18.2584C32.9863 18.2584 33.3665 18.4152 33.6475 18.6946Z"/>
</svg>
