<svg width="48" height="49" viewBox="0 0 48 49" fill="none" xmlns="http://www.w3.org/2000/svg">
<path d="M36.6 17.68L38.42 15.88C38.7966 15.5034 39.0082 14.9926 39.0082 14.46C39.0082 13.9274 38.7966 13.4166 38.42 13.04C38.0434 12.6634 37.5326 12.4518 37 12.4518C36.4674 12.4518 35.9566 12.6634 35.58 13.04L33.78 14.86C30.9771 12.6917 27.5337 11.5153 23.99 11.5153C20.4463 11.5153 17.0029 12.6917 14.2 14.86L12.38 13.02C12.0007 12.6434 11.4874 12.4329 10.9529 12.4347C10.4184 12.4366 9.9066 12.6507 9.52999 13.03C9.15338 13.4093 8.94286 13.9226 8.94474 14.4571C8.94661 14.9916 9.16073 15.5034 9.53999 15.88L11.38 17.7C9.18602 20.4951 7.99557 23.9467 7.99999 27.5C7.99346 30.0508 8.59692 32.5663 9.76004 34.8365C10.9232 37.1068 12.6122 39.066 14.6864 40.5509C16.7605 42.0357 19.1596 43.0031 21.6836 43.3724C24.2076 43.7417 26.7833 43.5022 29.1959 42.6738C31.6085 41.8454 33.7881 40.4522 35.5528 38.6103C37.3176 36.7685 38.6164 34.5313 39.341 32.0856C40.0655 29.6398 40.1947 27.0562 39.7179 24.5503C39.2411 22.0444 38.1721 19.6888 36.6 17.68ZM24 39.5C21.6266 39.5 19.3065 38.7962 17.3331 37.4776C15.3598 36.1591 13.8217 34.2849 12.9134 32.0922C12.0052 29.8995 11.7675 27.4867 12.2306 25.1589C12.6936 22.8311 13.8365 20.6929 15.5147 19.0147C17.1929 17.3365 19.3311 16.1936 21.6589 15.7306C23.9867 15.2676 26.3995 15.5052 28.5922 16.4134C30.7849 17.3217 32.659 18.8598 33.9776 20.8332C35.2962 22.8065 36 25.1266 36 27.5C36 30.6826 34.7357 33.7348 32.4853 35.9853C30.2348 38.2357 27.1826 39.5 24 39.5ZM20 9.5H28C28.5304 9.5 29.0391 9.28929 29.4142 8.91421C29.7893 8.53914 30 8.03043 30 7.5C30 6.96957 29.7893 6.46086 29.4142 6.08579C29.0391 5.71071 28.5304 5.5 28 5.5H20C19.4696 5.5 18.9609 5.71071 18.5858 6.08579C18.2107 6.46086 18 6.96957 18 7.5C18 8.03043 18.2107 8.53914 18.5858 8.91421C18.9609 9.28929 19.4696 9.5 20 9.5ZM26 21.5C26 20.9696 25.7893 20.4609 25.4142 20.0858C25.0391 19.7107 24.5304 19.5 24 19.5C23.4696 19.5 22.9609 19.7107 22.5858 20.0858C22.2107 20.4609 22 20.9696 22 21.5V25.28C21.5471 25.6851 21.2279 26.2181 21.0846 26.8085C20.9413 27.3989 20.9807 28.019 21.1975 28.5865C21.4143 29.1541 21.7983 29.6425 22.2987 29.987C22.7992 30.3316 23.3924 30.5161 24 30.5161C24.6076 30.5161 25.2008 30.3316 25.7013 29.987C26.2017 29.6425 26.5857 29.1541 26.8025 28.5865C27.0193 28.019 27.0587 27.3989 26.9154 26.8085C26.7721 26.2181 26.4529 25.6851 26 25.28V21.5Z" />
</svg>
