<svg width="48" height="48" viewBox="0 0 48 48" fill="none" xmlns="http://www.w3.org/2000/svg">
<path d="M25.12 4.34C24.7893 4.11645 24.3992 3.99698 24 3.99698C23.6008 3.99698 23.2107 4.11645 22.88 4.34C22.28 4.74 8.5 14.34 8.5 28.5C8.5 32.6109 10.133 36.5533 13.0398 39.4602C15.9467 42.367 19.8891 44 24 44C28.1109 44 32.0533 42.367 34.9602 39.4602C37.867 36.5533 39.5 32.6109 39.5 28.5C39.5 14.1 25.7 4.72 25.12 4.34ZM24 40C20.9516 39.9947 18.0296 38.7814 15.8741 36.6259C13.7186 34.4704 12.5053 31.5484 12.5 28.5C12.5 18.5 20.92 10.96 24 8.5C27.1 10.92 35.5 18.5 35.5 28.5C35.4947 31.5484 34.2814 34.4704 32.1259 36.6259C29.9704 38.7814 27.0484 39.9947 24 40Z" />
</svg>
